<?xml version="1.0" standalone="no"?>
<!DOCTYPE svg PUBLIC "-//W3C//DTD SVG 20010904//EN"
 "http://www.w3.org/TR/2001/REC-SVG-20010904/DTD/svg10.dtd">
<svg version="1.0" xmlns="http://www.w3.org/2000/svg"
 width="500.000000pt" height="500.000000pt" viewBox="0 0 500.000000 500.000000"
 preserveAspectRatio="xMidYMid meet">
<metadata>
Created by potrace 1.14, written by Peter Selinger 2001-2017
</metadata>
<g transform="translate(0.000000,500.000000) scale(0.100000,-0.100000)"
fill="#000000" stroke="none">
<path d="M832 3842 c-54 -5 -31 -26 31 -29 90 -3 139 -38 154 -108 5 -22 9
-342 8 -712 l0 -671 133 0 c73 0 135 -2 137 -4 3 -2 -3 -30 -12 -61 -17 -54
-19 -57 -50 -57 -34 0 -118 -34 -129 -52 -4 -5 -2 -14 4 -20 13 -13 92 -20 92
-9 0 4 -15 7 -32 6 -41 -1 -60 4 -52 16 10 17 65 40 106 45 40 5 40 5 33 -23
-7 -29 -23 -45 -37 -37 -4 3 -8 0 -8 -5 0 -6 7 -11 15 -11 18 0 18 -1 5 -36
-9 -24 -9 -25 5 -14 8 7 13 15 11 18 -3 2 -1 13 5 23 7 13 21 19 44 19 19 0
36 -3 36 -7 1 -5 3 -21 4 -38 2 -16 4 -37 5 -45 1 -8 8 8 17 35 18 60 20 63
55 67 15 2 31 8 35 12 4 5 -5 6 -20 2 -15 -4 -32 -4 -36 -1 -5 3 4 47 20 97
29 94 37 134 17 88 -13 -30 -11 -24 -27 -80 -24 -89 -40 -119 -63 -120 -5 0
-8 6 -8 14 0 8 -12 23 -26 33 l-26 20 16 55 c13 47 16 113 16 402 l0 346 28 1
c38 0 453 0 595 0 l117 -1 0 -339 0 -339 140 0 c97 0 140 4 141 12 1 6 2 320
2 698 2 681 2 687 23 715 33 43 76 64 146 68 78 4 74 3 62 15 -10 10 -732 15
-742 5 -11 -11 9 -18 63 -21 74 -4 125 -31 148 -77 16 -34 17 -70 15 -374 l-3
-337 -358 -1 c-198 0 -363 3 -368 6 -6 3 -9 140 -7 345 2 278 6 344 18 368 21
41 78 68 150 69 40 2 60 6 60 15 0 9 -44 12 -187 12 -104 0 -255 2 -338 3 -82
1 -165 1 -183 -1z m464 -1672 c8 0 14 -2 14 -4 0 -2 3 -11 6 -20 5 -13 -1 -16
-26 -16 -25 0 -31 3 -26 16 3 9 6 23 7 32 0 11 2 12 6 5 2 -7 11 -13 19 -13z
m64 -62 c0 -18 -2 -20 -9 -8 -6 8 -7 18 -5 22 9 14 14 9 14 -14z"/>
<path d="M2442 3078 c3 -7 28 -13 61 -14 64 -3 109 -24 141 -67 20 -27 21 -41
23 -320 1 -161 2 -306 2 -323 l1 -31 140 -1 140 0 0 372 0 373 238 -2 c267 -1
324 -11 388 -67 28 -25 88 -119 83 -130 0 -2 2 -19 5 -38 8 -40 14 -102 15
-142 1 -16 7 -28 14 -28 9 0 12 18 10 68 -5 136 -11 288 -12 325 l-1 37 -626
0 c-476 0 -625 -3 -622 -12z"/>
<path d="M2553 2314 c-36 -18 -37 -44 -2 -73 l22 -17 -34 -14 c-19 -8 -39 -19
-45 -25 -7 -5 -24 -19 -39 -30 -34 -24 -58 -79 -49 -108 4 -12 16 -30 27 -39
21 -19 67 -25 67 -9 0 5 -8 8 -17 6 -49 -7 -83 47 -58 94 25 50 150 132 175
116 5 -3 11 -1 15 5 3 5 1 11 -4 11 -20 3 -26 5 -49 18 -30 16 -26 55 6 59 12
2 22 8 22 13 0 11 1 12 -37 -7z"/>
<path d="M2606 2322 c-2 -4 12 -14 30 -23 19 -9 34 -13 34 -8 0 10 -59 39 -64
31z"/>
<path d="M2111 2216 c-12 -25 -23 -58 -24 -75 -1 -17 -5 -31 -9 -31 -5 0 -8
-6 -8 -13 0 -8 -18 -22 -40 -32 -22 -10 -40 -22 -40 -26 0 -9 41 6 77 29 12 7
30 29 40 49 10 19 25 49 34 65 15 29 15 78 0 78 -4 0 -17 -20 -30 -44z m19
-30 c-6 -19 -18 -40 -26 -47 -12 -10 -11 0 5 42 12 30 21 56 22 59 0 3 3 -1 6
-7 2 -7 0 -28 -7 -47z"/>
<path d="M3460 2245 c-15 -18 -40 -101 -40 -134 0 -14 -12 -39 -26 -55 -24
-25 -28 -26 -36 -12 -12 22 9 49 34 43 21 -6 25 8 4 16 -11 5 -27 -3 -64 -28
-7 -6 23 -55 33 -55 6 0 22 11 34 24 l22 24 24 -24 c25 -25 78 -33 91 -13 4 8
-3 9 -24 4 -26 -5 -36 -2 -57 19 -22 22 -24 29 -14 47 8 15 8 19 0 15 -6 -4
-11 -2 -11 3 0 6 7 11 15 11 8 0 22 17 30 37 22 51 13 64 -9 14 -23 -49 -39
-55 -24 -8 5 17 12 40 15 50 4 12 12 16 24 12 14 -5 17 -2 13 9 -8 20 -18 20
-34 1z"/>
<path d="M2705 2213 c-9 -20 -18 -60 -20 -87 -3 -28 -8 -63 -11 -79 -5 -21 -3
-26 7 -22 9 3 15 21 15 45 1 22 9 46 18 56 9 9 14 19 11 22 -3 4 -10 0 -15 -8
-8 -12 -10 -12 -10 4 0 35 23 96 37 96 16 0 16 0 -2 -44 -8 -20 -12 -36 -7
-36 8 0 32 58 32 78 0 7 -9 12 -20 12 -13 0 -25 -12 -35 -37z"/>
<path d="M2590 2172 c-53 -31 -79 -87 -55 -119 8 -10 15 -13 15 -6 0 6 -4 14
-9 17 -15 10 1 50 31 78 40 36 66 41 79 16 17 -32 -22 -84 -101 -131 -25 -15
-38 -27 -29 -27 20 0 98 55 124 89 50 64 12 122 -55 83z"/>
<path d="M1683 2139 c-7 -7 -13 -23 -13 -35 0 -27 -58 -64 -100 -64 -41 0 -67
30 -62 71 3 19 -43 -8 -59 -35 -16 -27 -17 -32 -4 -45 13 -13 17 -12 38 7 21
20 24 20 39 6 30 -31 115 -12 158 36 14 15 45 3 50 -20 5 -21 11 -25 45 -26
50 -1 107 21 136 52 l22 24 18 -22 c24 -27 14 -42 -23 -34 -26 5 -29 4 -18 -9
7 -8 25 -15 41 -15 35 0 39 25 9 62 -14 19 -16 28 -8 36 7 7 8 12 2 12 -6 0
-20 -10 -31 -22 -47 -53 -98 -77 -154 -74 -18 1 -24 7 -25 26 -2 41 -3 45 -16
32 -19 -19 -26 -14 -30 19 -2 24 -5 28 -15 18z m-198 -68 c-22 -43 -40 -51
-31 -15 7 27 21 44 39 44 4 0 1 -13 -8 -29z"/>
<path d="M2896 2085 c-53 -37 -123 -54 -159 -37 -22 9 -22 10 6 22 23 12 37
30 22 30 -5 0 -45 -23 -64 -37 -2 -1 2 -9 9 -18 16 -20 99 -20 145 -1 33 14
35 14 35 -5 0 -25 25 -24 43 1 12 18 17 19 28 7 25 -25 61 -27 107 -7 53 24
53 24 46 5 -8 -21 3 -19 28 5 12 11 30 20 40 20 10 0 23 -9 30 -20 15 -24 75
-27 104 -5 10 8 14 15 7 15 -6 0 -14 -4 -17 -8 -11 -19 -66 -12 -92 13 -29 27
-40 30 -49 15 -3 -5 -13 -10 -21 -10 -8 0 -12 5 -9 10 3 6 0 10 -9 10 -8 0
-16 -4 -18 -9 -1 -5 -20 -18 -42 -29 -30 -16 -44 -19 -64 -11 -30 11 -53 39
-44 54 3 5 -2 4 -11 -4 -9 -7 -17 -19 -17 -26 0 -7 -7 -18 -15 -25 -12 -10
-15 -9 -15 8 0 11 14 32 31 46 44 37 22 32 -35 -9z"/>
<path d="M3597 2083 c-25 -21 -44 -39 -41 -42 2 -3 10 1 16 7 9 9 16 8 31 -5
31 -29 123 -23 181 11 61 36 55 42 -9 11 -28 -14 -66 -26 -85 -29 -38 -4 -80
8 -80 23 0 16 38 56 46 48 4 -4 -1 -14 -12 -22 -10 -8 -14 -15 -8 -15 15 0 46
35 37 43 -13 14 -31 6 -76 -30z"/>
<path d="M2258 2069 c-38 -28 -77 -30 -110 -6 -22 16 -31 18 -40 9 -7 -7 -19
-12 -28 -12 -9 0 -16 -9 -17 -20 -2 -19 0 -19 30 4 32 24 32 24 56 5 13 -10
32 -19 43 -19 24 0 98 37 98 50 0 13 0 13 -32 -11z"/>
<path d="M2669 1800 c0 -19 -1 -99 -2 -177 -2 -127 -4 -145 -23 -170 -33 -44
-75 -63 -143 -66 -41 -1 -61 -6 -61 -14 0 -10 140 -13 665 -13 l665 0 1 33 c1
17 3 66 5 107 12 262 12 290 -2 290 -10 0 -14 -13 -15 -42 -2 -148 -39 -246
-113 -303 -63 -48 -127 -57 -423 -59 l-273 -2 0 225 0 226 -140 0 -140 1 -1
-36z"/>
</g>
</svg>
